<mxfile host="app.diagrams.net" agent="Mozilla/5.0 (Windows NT 10.0; Win64; x64) AppleWebKit/537.36 (KHTML, like Gecko) Chrome/128.0.0.0 Safari/537.36" version="24.7.14">
  <diagram name="PÃ¡gina-1" id="5YuiZE5SITGCebLplxSS">
    <mxGraphModel dx="1194" dy="1498" grid="1" gridSize="10" guides="1" tooltips="1" connect="1" arrows="1" fold="1" page="0" pageScale="1" pageWidth="827" pageHeight="1169" math="0" shadow="0">
      <root>
        <mxCell id="0" />
        <mxCell id="1" parent="0" />
        <mxCell id="xPGDtiwUxA1no1O4273v-2" value="&lt;font style=&quot;font-size: 15px;&quot;&gt;Aluno&lt;/font&gt;" style="rounded=0;whiteSpace=wrap;html=1;strokeWidth=2;" parent="1" vertex="1">
          <mxGeometry x="330" y="-280" width="120" height="60" as="geometry" />
        </mxCell>
        <mxCell id="xPGDtiwUxA1no1O4273v-3" value="&lt;font style=&quot;font-size: 15px;&quot;&gt;DataNasc&lt;/font&gt;" style="ellipse;whiteSpace=wrap;html=1;strokeWidth=2;" parent="1" vertex="1">
          <mxGeometry x="360" y="-160" width="110" height="55" as="geometry" />
        </mxCell>
        <mxCell id="xPGDtiwUxA1no1O4273v-4" value="&lt;font style=&quot;font-size: 15px;&quot;&gt;Sexo&lt;/font&gt;" style="ellipse;whiteSpace=wrap;html=1;strokeWidth=2;" parent="1" vertex="1">
          <mxGeometry x="250" y="-172.5" width="100" height="50" as="geometry" />
        </mxCell>
        <mxCell id="xPGDtiwUxA1no1O4273v-5" value="&lt;font style=&quot;font-size: 15px;&quot;&gt;Nome&lt;/font&gt;" style="ellipse;whiteSpace=wrap;html=1;strokeWidth=2;" parent="1" vertex="1">
          <mxGeometry x="170" y="-240" width="100" height="50" as="geometry" />
        </mxCell>
        <mxCell id="xPGDtiwUxA1no1O4273v-6" value="&lt;u&gt;&lt;font style=&quot;font-size: 15px;&quot;&gt;NumMec&lt;/font&gt;&lt;/u&gt;" style="ellipse;whiteSpace=wrap;html=1;strokeWidth=3;" parent="1" vertex="1">
          <mxGeometry x="180" y="-325" width="100" height="50" as="geometry" />
        </mxCell>
        <mxCell id="xPGDtiwUxA1no1O4273v-13" value="" style="endArrow=none;html=1;rounded=0;fontSize=12;startSize=8;endSize=8;curved=1;entryX=0.5;entryY=1;entryDx=0;entryDy=0;exitX=0.5;exitY=0;exitDx=0;exitDy=0;strokeWidth=2;" parent="1" source="xPGDtiwUxA1no1O4273v-4" target="xPGDtiwUxA1no1O4273v-2" edge="1">
          <mxGeometry width="50" height="50" relative="1" as="geometry">
            <mxPoint x="390" y="-140" as="sourcePoint" />
            <mxPoint x="440" y="-190" as="targetPoint" />
          </mxGeometry>
        </mxCell>
        <mxCell id="xPGDtiwUxA1no1O4273v-14" value="" style="endArrow=none;html=1;rounded=0;fontSize=12;startSize=8;endSize=8;curved=1;entryX=0.75;entryY=1;entryDx=0;entryDy=0;exitX=0.5;exitY=0;exitDx=0;exitDy=0;strokeWidth=2;" parent="1" source="xPGDtiwUxA1no1O4273v-3" target="xPGDtiwUxA1no1O4273v-2" edge="1">
          <mxGeometry width="50" height="50" relative="1" as="geometry">
            <mxPoint x="520" y="-170" as="sourcePoint" />
            <mxPoint x="570" y="-220" as="targetPoint" />
          </mxGeometry>
        </mxCell>
        <mxCell id="xPGDtiwUxA1no1O4273v-15" value="" style="endArrow=none;html=1;rounded=0;fontSize=12;startSize=8;endSize=8;curved=1;exitX=1;exitY=0.5;exitDx=0;exitDy=0;entryX=0;entryY=1;entryDx=0;entryDy=0;strokeWidth=2;" parent="1" source="xPGDtiwUxA1no1O4273v-5" target="xPGDtiwUxA1no1O4273v-2" edge="1">
          <mxGeometry width="50" height="50" relative="1" as="geometry">
            <mxPoint x="290" y="-150" as="sourcePoint" />
            <mxPoint x="330" y="-220" as="targetPoint" />
          </mxGeometry>
        </mxCell>
        <mxCell id="xPGDtiwUxA1no1O4273v-17" style="edgeStyle=none;curved=1;rounded=0;orthogonalLoop=1;jettySize=auto;html=1;exitX=0;exitY=0;exitDx=0;exitDy=0;fontSize=12;startSize=8;endSize=8;" parent="1" source="xPGDtiwUxA1no1O4273v-3" target="xPGDtiwUxA1no1O4273v-3" edge="1">
          <mxGeometry relative="1" as="geometry" />
        </mxCell>
        <mxCell id="xPGDtiwUxA1no1O4273v-19" value="" style="endArrow=none;html=1;rounded=0;fontSize=12;startSize=8;endSize=8;curved=1;exitX=1;exitY=0.5;exitDx=0;exitDy=0;entryX=0;entryY=0;entryDx=0;entryDy=0;strokeWidth=3;" parent="1" source="xPGDtiwUxA1no1O4273v-6" target="xPGDtiwUxA1no1O4273v-2" edge="1">
          <mxGeometry width="50" height="50" relative="1" as="geometry">
            <mxPoint x="360" y="-170" as="sourcePoint" />
            <mxPoint x="410" y="-220" as="targetPoint" />
          </mxGeometry>
        </mxCell>
        <mxCell id="xPGDtiwUxA1no1O4273v-25" value="morada" style="ellipse;whiteSpace=wrap;html=1;strokeWidth=2;" parent="1" vertex="1">
          <mxGeometry x="580" y="-265" width="110" height="50" as="geometry" />
        </mxCell>
        <mxCell id="xPGDtiwUxA1no1O4273v-26" value="" style="endArrow=none;html=1;rounded=0;fontSize=12;startSize=8;endSize=8;curved=1;entryX=0;entryY=0.5;entryDx=0;entryDy=0;exitX=1;exitY=0.5;exitDx=0;exitDy=0;strokeWidth=2;" parent="1" source="xPGDtiwUxA1no1O4273v-2" target="xPGDtiwUxA1no1O4273v-25" edge="1">
          <mxGeometry width="50" height="50" relative="1" as="geometry">
            <mxPoint x="520" y="-230" as="sourcePoint" />
            <mxPoint x="570" y="-280" as="targetPoint" />
          </mxGeometry>
        </mxCell>
        <mxCell id="xPGDtiwUxA1no1O4273v-27" value="rua" style="ellipse;whiteSpace=wrap;html=1;strokeWidth=2;" parent="1" vertex="1">
          <mxGeometry x="670" y="-340" width="70" height="40" as="geometry" />
        </mxCell>
        <mxCell id="xPGDtiwUxA1no1O4273v-28" value="Num" style="ellipse;whiteSpace=wrap;html=1;strokeWidth=2;" parent="1" vertex="1">
          <mxGeometry x="720" y="-290" width="70" height="40" as="geometry" />
        </mxCell>
        <mxCell id="xPGDtiwUxA1no1O4273v-29" value="Andar?" style="ellipse;whiteSpace=wrap;html=1;strokeWidth=2;" parent="1" vertex="1">
          <mxGeometry x="730" y="-235" width="70" height="40" as="geometry" />
        </mxCell>
        <mxCell id="xPGDtiwUxA1no1O4273v-30" value="Localidade" style="ellipse;whiteSpace=wrap;html=1;strokeWidth=2;" parent="1" vertex="1">
          <mxGeometry x="710" y="-180" width="70" height="40" as="geometry" />
        </mxCell>
        <mxCell id="xPGDtiwUxA1no1O4273v-31" value="Codpostal" style="ellipse;whiteSpace=wrap;html=1;strokeWidth=2;" parent="1" vertex="1">
          <mxGeometry x="630" y="-157.5" width="70" height="40" as="geometry" />
        </mxCell>
        <mxCell id="xPGDtiwUxA1no1O4273v-32" value="" style="endArrow=none;html=1;rounded=0;fontSize=12;startSize=8;endSize=8;curved=1;entryX=0;entryY=1;entryDx=0;entryDy=0;exitX=0.5;exitY=0;exitDx=0;exitDy=0;strokeWidth=2;" parent="1" source="xPGDtiwUxA1no1O4273v-25" target="xPGDtiwUxA1no1O4273v-27" edge="1">
          <mxGeometry width="50" height="50" relative="1" as="geometry">
            <mxPoint x="630" y="-250" as="sourcePoint" />
            <mxPoint x="680" y="-300" as="targetPoint" />
          </mxGeometry>
        </mxCell>
        <mxCell id="xPGDtiwUxA1no1O4273v-33" value="" style="endArrow=none;html=1;rounded=0;fontSize=12;startSize=8;endSize=8;curved=1;entryX=0;entryY=0.5;entryDx=0;entryDy=0;exitX=1;exitY=0;exitDx=0;exitDy=0;strokeWidth=2;" parent="1" source="xPGDtiwUxA1no1O4273v-25" target="xPGDtiwUxA1no1O4273v-28" edge="1">
          <mxGeometry width="50" height="50" relative="1" as="geometry">
            <mxPoint x="630" y="-250" as="sourcePoint" />
            <mxPoint x="680" y="-300" as="targetPoint" />
          </mxGeometry>
        </mxCell>
        <mxCell id="xPGDtiwUxA1no1O4273v-34" value="" style="endArrow=none;html=1;rounded=0;fontSize=12;startSize=8;endSize=8;curved=1;entryX=0;entryY=0.5;entryDx=0;entryDy=0;exitX=1;exitY=0.5;exitDx=0;exitDy=0;strokeWidth=2;" parent="1" source="xPGDtiwUxA1no1O4273v-25" target="xPGDtiwUxA1no1O4273v-29" edge="1">
          <mxGeometry width="50" height="50" relative="1" as="geometry">
            <mxPoint x="630" y="-250" as="sourcePoint" />
            <mxPoint x="680" y="-300" as="targetPoint" />
          </mxGeometry>
        </mxCell>
        <mxCell id="xPGDtiwUxA1no1O4273v-35" value="" style="endArrow=none;html=1;rounded=0;fontSize=12;startSize=8;endSize=8;curved=1;exitX=0;exitY=0;exitDx=0;exitDy=0;entryX=1;entryY=1;entryDx=0;entryDy=0;strokeWidth=2;" parent="1" source="xPGDtiwUxA1no1O4273v-30" target="xPGDtiwUxA1no1O4273v-25" edge="1">
          <mxGeometry width="50" height="50" relative="1" as="geometry">
            <mxPoint x="630" y="-250" as="sourcePoint" />
            <mxPoint x="680" y="-300" as="targetPoint" />
          </mxGeometry>
        </mxCell>
        <mxCell id="xPGDtiwUxA1no1O4273v-36" value="" style="endArrow=none;html=1;rounded=0;fontSize=12;startSize=8;endSize=8;curved=1;entryX=0.5;entryY=0;entryDx=0;entryDy=0;exitX=0.5;exitY=1;exitDx=0;exitDy=0;strokeWidth=2;" parent="1" source="xPGDtiwUxA1no1O4273v-25" target="xPGDtiwUxA1no1O4273v-31" edge="1">
          <mxGeometry width="50" height="50" relative="1" as="geometry">
            <mxPoint x="620" y="-80" as="sourcePoint" />
            <mxPoint x="670" y="-130" as="targetPoint" />
          </mxGeometry>
        </mxCell>
        <mxCell id="xPGDtiwUxA1no1O4273v-37" value="&lt;font style=&quot;font-size: 16px;&quot;&gt;Idade&lt;/font&gt;" style="ellipse;whiteSpace=wrap;html=1;dashed=1;strokeWidth=2;" parent="1" vertex="1">
          <mxGeometry x="481.67" y="-182.5" width="100" height="60" as="geometry" />
        </mxCell>
        <mxCell id="xPGDtiwUxA1no1O4273v-39" value="" style="endArrow=none;html=1;rounded=0;fontSize=12;startSize=8;endSize=8;curved=1;exitX=0.5;exitY=0;exitDx=0;exitDy=0;entryX=1;entryY=1;entryDx=0;entryDy=0;dashed=1;strokeWidth=2;" parent="1" source="xPGDtiwUxA1no1O4273v-37" target="xPGDtiwUxA1no1O4273v-2" edge="1">
          <mxGeometry width="50" height="50" relative="1" as="geometry">
            <mxPoint x="630" y="-250" as="sourcePoint" />
            <mxPoint x="680" y="-300" as="targetPoint" />
          </mxGeometry>
        </mxCell>
        <mxCell id="xPGDtiwUxA1no1O4273v-42" value="" style="group;strokeWidth=4;" parent="1" vertex="1" connectable="0">
          <mxGeometry x="460" y="-365" width="100" height="70" as="geometry" />
        </mxCell>
        <mxCell id="xPGDtiwUxA1no1O4273v-40" value="" style="ellipse;whiteSpace=wrap;html=1;strokeWidth=2;" parent="xPGDtiwUxA1no1O4273v-42" vertex="1">
          <mxGeometry width="100" height="70" as="geometry" />
        </mxCell>
        <mxCell id="xPGDtiwUxA1no1O4273v-41" value="HabilitaÃ§Ã£o" style="ellipse;whiteSpace=wrap;html=1;strokeWidth=2;" parent="xPGDtiwUxA1no1O4273v-42" vertex="1">
          <mxGeometry x="8.333333333333334" y="4.375" width="83.33333333333334" height="61.25" as="geometry" />
        </mxCell>
        <mxCell id="xPGDtiwUxA1no1O4273v-43" value="" style="group;strokeWidth=2;" parent="1" vertex="1" connectable="0">
          <mxGeometry x="340" y="-390" width="100" height="70" as="geometry" />
        </mxCell>
        <mxCell id="xPGDtiwUxA1no1O4273v-44" value="" style="ellipse;whiteSpace=wrap;html=1;strokeWidth=2;" parent="xPGDtiwUxA1no1O4273v-43" vertex="1">
          <mxGeometry width="100.00000000000001" height="70" as="geometry" />
        </mxCell>
        <mxCell id="xPGDtiwUxA1no1O4273v-45" value="Numtelef" style="ellipse;whiteSpace=wrap;html=1;strokeWidth=2;" parent="xPGDtiwUxA1no1O4273v-43" vertex="1">
          <mxGeometry x="8.333333333333334" y="4.375" width="83.33333333333333" height="61.25" as="geometry" />
        </mxCell>
        <mxCell id="xPGDtiwUxA1no1O4273v-46" style="edgeStyle=none;curved=1;rounded=0;orthogonalLoop=1;jettySize=auto;html=1;entryX=1;entryY=0.5;entryDx=0;entryDy=0;fontSize=12;startSize=8;endSize=8;" parent="xPGDtiwUxA1no1O4273v-43" source="xPGDtiwUxA1no1O4273v-45" target="xPGDtiwUxA1no1O4273v-45" edge="1">
          <mxGeometry relative="1" as="geometry" />
        </mxCell>
        <mxCell id="xPGDtiwUxA1no1O4273v-47" value="Grau" style="ellipse;whiteSpace=wrap;html=1;strokeWidth=2;" parent="1" vertex="1">
          <mxGeometry x="481.66999999999996" y="-430" width="70" height="40" as="geometry" />
        </mxCell>
        <mxCell id="xPGDtiwUxA1no1O4273v-48" value="Ano" style="ellipse;whiteSpace=wrap;html=1;strokeWidth=2;" parent="1" vertex="1">
          <mxGeometry x="560" y="-405" width="70" height="40" as="geometry" />
        </mxCell>
        <mxCell id="xPGDtiwUxA1no1O4273v-49" value="InstituiÃ§Ã£o" style="ellipse;whiteSpace=wrap;html=1;strokeWidth=2;" parent="1" vertex="1">
          <mxGeometry x="590" y="-350" width="70" height="50" as="geometry" />
        </mxCell>
        <mxCell id="xPGDtiwUxA1no1O4273v-50" value="" style="endArrow=none;html=1;rounded=0;fontSize=12;startSize=8;endSize=8;curved=1;exitX=1;exitY=0;exitDx=0;exitDy=0;entryX=0;entryY=1;entryDx=0;entryDy=0;strokeWidth=2;" parent="1" source="xPGDtiwUxA1no1O4273v-2" target="xPGDtiwUxA1no1O4273v-41" edge="1">
          <mxGeometry width="50" height="50" relative="1" as="geometry">
            <mxPoint x="630" y="-250" as="sourcePoint" />
            <mxPoint x="680" y="-300" as="targetPoint" />
          </mxGeometry>
        </mxCell>
        <mxCell id="xPGDtiwUxA1no1O4273v-51" value="" style="endArrow=none;html=1;rounded=0;fontSize=12;startSize=8;endSize=8;curved=1;exitX=1;exitY=0;exitDx=0;exitDy=0;entryX=0;entryY=1;entryDx=0;entryDy=0;strokeWidth=2;" parent="1" source="xPGDtiwUxA1no1O4273v-41" target="xPGDtiwUxA1no1O4273v-48" edge="1">
          <mxGeometry width="50" height="50" relative="1" as="geometry">
            <mxPoint x="630" y="-250" as="sourcePoint" />
            <mxPoint x="680" y="-300" as="targetPoint" />
          </mxGeometry>
        </mxCell>
        <mxCell id="xPGDtiwUxA1no1O4273v-52" value="" style="endArrow=none;html=1;rounded=0;fontSize=12;startSize=8;endSize=8;curved=1;exitX=1.014;exitY=0.627;exitDx=0;exitDy=0;exitPerimeter=0;entryX=0;entryY=0.597;entryDx=0;entryDy=0;entryPerimeter=0;strokeWidth=2;" parent="1" source="xPGDtiwUxA1no1O4273v-40" target="xPGDtiwUxA1no1O4273v-49" edge="1">
          <mxGeometry width="50" height="50" relative="1" as="geometry">
            <mxPoint x="630" y="-250" as="sourcePoint" />
            <mxPoint x="680" y="-300" as="targetPoint" />
          </mxGeometry>
        </mxCell>
        <mxCell id="xPGDtiwUxA1no1O4273v-53" value="" style="endArrow=none;html=1;rounded=0;fontSize=12;startSize=8;endSize=8;curved=1;exitX=0.44;exitY=-0.052;exitDx=0;exitDy=0;exitPerimeter=0;entryX=0.5;entryY=1;entryDx=0;entryDy=0;strokeWidth=2;" parent="1" source="xPGDtiwUxA1no1O4273v-41" target="xPGDtiwUxA1no1O4273v-47" edge="1">
          <mxGeometry width="50" height="50" relative="1" as="geometry">
            <mxPoint x="630" y="-250" as="sourcePoint" />
            <mxPoint x="680" y="-300" as="targetPoint" />
          </mxGeometry>
        </mxCell>
        <mxCell id="xPGDtiwUxA1no1O4273v-54" value="" style="endArrow=none;html=1;rounded=0;fontSize=12;startSize=8;endSize=8;curved=1;exitX=0.5;exitY=0;exitDx=0;exitDy=0;entryX=0.5;entryY=1;entryDx=0;entryDy=0;strokeWidth=2;" parent="1" source="xPGDtiwUxA1no1O4273v-2" target="xPGDtiwUxA1no1O4273v-44" edge="1">
          <mxGeometry width="50" height="50" relative="1" as="geometry">
            <mxPoint x="630" y="-250" as="sourcePoint" />
            <mxPoint x="680" y="-300" as="targetPoint" />
          </mxGeometry>
        </mxCell>
        <mxCell id="xPGDtiwUxA1no1O4273v-57" style="edgeStyle=none;curved=1;rounded=0;orthogonalLoop=1;jettySize=auto;html=1;exitX=0;exitY=1;exitDx=0;exitDy=0;fontSize=12;startSize=8;endSize=8;" parent="1" source="xPGDtiwUxA1no1O4273v-5" target="xPGDtiwUxA1no1O4273v-5" edge="1">
          <mxGeometry relative="1" as="geometry" />
        </mxCell>
        <mxCell id="7FYcL7ljYGfWImIjqsui-1" value="&lt;span style=&quot;font-size: 15px;&quot;&gt;Escola&lt;/span&gt;" style="rounded=0;whiteSpace=wrap;html=1;strokeWidth=2;" vertex="1" parent="1">
          <mxGeometry x="330" y="125" width="120" height="60" as="geometry" />
        </mxCell>
        <mxCell id="7FYcL7ljYGfWImIjqsui-2" value="&lt;font style=&quot;font-size: 15px;&quot;&gt;Nome&lt;/font&gt;" style="ellipse;whiteSpace=wrap;html=1;strokeWidth=2;" vertex="1" parent="1">
          <mxGeometry x="360" y="245" width="110" height="55" as="geometry" />
        </mxCell>
        <mxCell id="7FYcL7ljYGfWImIjqsui-3" value="&lt;font style=&quot;font-size: 15px;&quot;&gt;CodEscola&lt;/font&gt;" style="ellipse;whiteSpace=wrap;html=1;strokeWidth=2;" vertex="1" parent="1">
          <mxGeometry x="250" y="232.5" width="100" height="50" as="geometry" />
        </mxCell>
        <mxCell id="7FYcL7ljYGfWImIjqsui-5" value="" style="endArrow=none;html=1;rounded=0;fontSize=12;startSize=8;endSize=8;curved=1;entryX=0.5;entryY=1;entryDx=0;entryDy=0;exitX=0.5;exitY=0;exitDx=0;exitDy=0;strokeWidth=2;" edge="1" parent="1" source="7FYcL7ljYGfWImIjqsui-3" target="7FYcL7ljYGfWImIjqsui-1">
          <mxGeometry width="50" height="50" relative="1" as="geometry">
            <mxPoint x="390" y="265" as="sourcePoint" />
            <mxPoint x="440" y="215" as="targetPoint" />
          </mxGeometry>
        </mxCell>
        <mxCell id="7FYcL7ljYGfWImIjqsui-6" value="" style="endArrow=none;html=1;rounded=0;fontSize=12;startSize=8;endSize=8;curved=1;entryX=0.75;entryY=1;entryDx=0;entryDy=0;exitX=0.5;exitY=0;exitDx=0;exitDy=0;strokeWidth=2;" edge="1" parent="1" source="7FYcL7ljYGfWImIjqsui-2" target="7FYcL7ljYGfWImIjqsui-1">
          <mxGeometry width="50" height="50" relative="1" as="geometry">
            <mxPoint x="520" y="235" as="sourcePoint" />
            <mxPoint x="570" y="185" as="targetPoint" />
          </mxGeometry>
        </mxCell>
        <mxCell id="7FYcL7ljYGfWImIjqsui-8" style="edgeStyle=none;curved=1;rounded=0;orthogonalLoop=1;jettySize=auto;html=1;exitX=0;exitY=0;exitDx=0;exitDy=0;fontSize=12;startSize=8;endSize=8;" edge="1" parent="1" source="7FYcL7ljYGfWImIjqsui-2" target="7FYcL7ljYGfWImIjqsui-2">
          <mxGeometry relative="1" as="geometry" />
        </mxCell>
        <mxCell id="7FYcL7ljYGfWImIjqsui-10" value="morada" style="ellipse;whiteSpace=wrap;html=1;strokeWidth=2;" vertex="1" parent="1">
          <mxGeometry x="520" y="125" width="110" height="50" as="geometry" />
        </mxCell>
        <mxCell id="7FYcL7ljYGfWImIjqsui-11" value="" style="endArrow=none;html=1;rounded=0;fontSize=12;startSize=8;endSize=8;curved=1;entryX=0;entryY=0.5;entryDx=0;entryDy=0;exitX=1;exitY=0.5;exitDx=0;exitDy=0;strokeWidth=2;" edge="1" parent="1" source="7FYcL7ljYGfWImIjqsui-1" target="7FYcL7ljYGfWImIjqsui-10">
          <mxGeometry width="50" height="50" relative="1" as="geometry">
            <mxPoint x="520" y="175" as="sourcePoint" />
            <mxPoint x="570" y="125" as="targetPoint" />
          </mxGeometry>
        </mxCell>
        <mxCell id="7FYcL7ljYGfWImIjqsui-12" value="rua" style="ellipse;whiteSpace=wrap;html=1;strokeWidth=2;" vertex="1" parent="1">
          <mxGeometry x="620" y="50" width="70" height="40" as="geometry" />
        </mxCell>
        <mxCell id="7FYcL7ljYGfWImIjqsui-13" value="Num" style="ellipse;whiteSpace=wrap;html=1;strokeWidth=2;" vertex="1" parent="1">
          <mxGeometry x="670" y="90" width="70" height="40" as="geometry" />
        </mxCell>
        <mxCell id="7FYcL7ljYGfWImIjqsui-14" value="CodPostal" style="ellipse;whiteSpace=wrap;html=1;strokeWidth=2;" vertex="1" parent="1">
          <mxGeometry x="690" y="135" width="70" height="40" as="geometry" />
        </mxCell>
        <mxCell id="7FYcL7ljYGfWImIjqsui-16" value="Pais" style="ellipse;whiteSpace=wrap;html=1;strokeWidth=2;" vertex="1" parent="1">
          <mxGeometry x="640" y="185" width="70" height="40" as="geometry" />
        </mxCell>
        <mxCell id="7FYcL7ljYGfWImIjqsui-17" value="" style="endArrow=none;html=1;rounded=0;fontSize=12;startSize=8;endSize=8;curved=1;entryX=0;entryY=1;entryDx=0;entryDy=0;exitX=0.5;exitY=0;exitDx=0;exitDy=0;strokeWidth=2;" edge="1" parent="1" source="7FYcL7ljYGfWImIjqsui-10" target="7FYcL7ljYGfWImIjqsui-12">
          <mxGeometry width="50" height="50" relative="1" as="geometry">
            <mxPoint x="630" y="155" as="sourcePoint" />
            <mxPoint x="680" y="105" as="targetPoint" />
          </mxGeometry>
        </mxCell>
        <mxCell id="7FYcL7ljYGfWImIjqsui-18" value="" style="endArrow=none;html=1;rounded=0;fontSize=12;startSize=8;endSize=8;curved=1;entryX=0;entryY=0.5;entryDx=0;entryDy=0;exitX=1;exitY=0;exitDx=0;exitDy=0;strokeWidth=2;" edge="1" parent="1" source="7FYcL7ljYGfWImIjqsui-10" target="7FYcL7ljYGfWImIjqsui-13">
          <mxGeometry width="50" height="50" relative="1" as="geometry">
            <mxPoint x="630" y="155" as="sourcePoint" />
            <mxPoint x="680" y="105" as="targetPoint" />
          </mxGeometry>
        </mxCell>
        <mxCell id="7FYcL7ljYGfWImIjqsui-19" value="" style="endArrow=none;html=1;rounded=0;fontSize=12;startSize=8;endSize=8;curved=1;entryX=0;entryY=0.5;entryDx=0;entryDy=0;exitX=1;exitY=0.5;exitDx=0;exitDy=0;strokeWidth=2;" edge="1" parent="1" source="7FYcL7ljYGfWImIjqsui-10" target="7FYcL7ljYGfWImIjqsui-14">
          <mxGeometry width="50" height="50" relative="1" as="geometry">
            <mxPoint x="630" y="155" as="sourcePoint" />
            <mxPoint x="680" y="105" as="targetPoint" />
          </mxGeometry>
        </mxCell>
        <mxCell id="7FYcL7ljYGfWImIjqsui-21" value="" style="endArrow=none;html=1;rounded=0;fontSize=12;startSize=8;endSize=8;curved=1;entryX=0.5;entryY=0;entryDx=0;entryDy=0;exitX=1;exitY=1;exitDx=0;exitDy=0;strokeWidth=2;" edge="1" parent="1" source="7FYcL7ljYGfWImIjqsui-10" target="7FYcL7ljYGfWImIjqsui-16">
          <mxGeometry width="50" height="50" relative="1" as="geometry">
            <mxPoint x="620" y="325" as="sourcePoint" />
            <mxPoint x="670" y="275" as="targetPoint" />
          </mxGeometry>
        </mxCell>
        <mxCell id="7FYcL7ljYGfWImIjqsui-22" value="&lt;font style=&quot;font-size: 16px;&quot;&gt;Telefone&lt;/font&gt;" style="ellipse;whiteSpace=wrap;html=1;dashed=1;strokeWidth=2;" vertex="1" parent="1">
          <mxGeometry x="481.67" y="222.5" width="100" height="60" as="geometry" />
        </mxCell>
        <mxCell id="7FYcL7ljYGfWImIjqsui-23" value="" style="endArrow=none;html=1;rounded=0;fontSize=12;startSize=8;endSize=8;curved=1;exitX=0.5;exitY=0;exitDx=0;exitDy=0;entryX=1;entryY=1;entryDx=0;entryDy=0;dashed=1;strokeWidth=2;" edge="1" parent="1" source="7FYcL7ljYGfWImIjqsui-22" target="7FYcL7ljYGfWImIjqsui-1">
          <mxGeometry width="50" height="50" relative="1" as="geometry">
            <mxPoint x="630" y="155" as="sourcePoint" />
            <mxPoint x="680" y="105" as="targetPoint" />
          </mxGeometry>
        </mxCell>
      </root>
    </mxGraphModel>
  </diagram>
</mxfile>
